<svg width="207" height="59" viewBox="0 0 207 59" fill="none" xmlns="http://www.w3.org/2000/svg">
<g clip-path="url(#clip0_22_8)">
<path d="M29.2113 0.0345001L0 29.3151L29.1768 58.6648L32.7635 55.216L6.89759 29.3497L32.7635 3.48333L29.2113 0.0345001Z" fill="url(#paint0_linear_22_8)"/>
<path d="M32.7635 15.4853L29.3147 12.0709L12.0708 29.3151L29.3147 46.5937L32.7635 43.1449L19.0028 29.3151L32.7635 15.4853Z" fill="url(#paint1_linear_22_8)"/>
<path d="M51.6628 29.2462L31.8324 49.1115L41.3511 58.6648L67.2515 32.833L83.8057 49.3874V42.4552L73.011 31.7293H83.8057V9.31188L67.2515 25.8318L41.4199 0L31.8324 9.41533L51.6628 29.2462Z" fill="url(#paint2_linear_22_8)"/>
<path d="M78.9084 21.0724L73.011 26.901H78.9084V21.0724Z" fill="#23242D"/>
<path d="M41.3856 6.93215L38.8334 9.51878L58.5951 29.3497L38.7299 49.0769L41.4199 51.7326L63.8371 29.3497L41.3856 6.93215Z" fill="#23242D"/>
<path d="M30.6943 31.3844C31.8372 31.3844 32.7636 30.458 32.7636 29.3151C32.7636 28.1723 31.8372 27.2458 30.6943 27.2458C29.5515 27.2458 28.625 28.1723 28.625 29.3151C28.625 30.458 29.5515 31.3844 30.6943 31.3844Z" fill="url(#paint3_linear_22_8)"/>
<path d="M95.8519 9.66472C92.6552 10.1829 89.8273 11.8855 88.278 14.2296C86.7928 16.4768 86.6551 19.2707 86.6551 20.9658C86.6551 22.661 86.9172 23.9456 87.5157 25.2346C88.5239 27.406 89.9257 28.8865 91.9667 29.9475C94.3028 31.1813 95.8028 31.4281 99.5405 31.3047C102.024 31.206 103.008 31.058 104.139 30.6384L105.541 30.0955V27.5294V24.9632L104.385 25.5554C99.7127 27.9489 94.5241 27.0359 92.7043 23.4827C92.1388 22.397 92.0158 21.8541 92.0158 20.3982C92.0158 18.227 92.5568 16.9685 93.9586 15.7594C95.9749 14.0322 99.5405 13.6867 102.91 14.9205C103.942 15.2906 105.467 16.1402 105.541 16.2636C105.541 16.2636 105.541 15.7841 105.541 13.4893V10.8985L104.188 10.405C101.705 9.46733 98.6061 9.19589 95.8519 9.66472Z" fill="url(#paint4_linear_22_8)"/>
<path d="M107.746 20.3651V31.3437H115.065H122.384V29.3247V27.3056H117.084H111.784V26.5485V25.7914H116.075H120.365V23.7723V21.7532H116.075H111.784V17.5889V13.4245H116.958H122.132V11.4054V9.38636H114.939H107.746V20.3651Z" fill="url(#paint5_linear_22_8)"/>
<path d="M123.558 9.38636C123.558 9.38636 128.946 26.6243 129.855 29.4004L130.511 31.3437H133.136C134.574 31.3437 135.75 31.3437 135.75 31.3437C135.75 31.3437 137.3 26.4223 139.167 20.6931C141.035 14.964 142.859 9.38636 142.859 9.38636C142.859 9.38636 142.65 9.38636 140.707 9.38636H138.562L135.836 17.7151L133.085 26.0185L131.52 20.9204C130.637 18.1189 129.476 14.3836 128.921 12.5916L127.911 9.38636H125.766C124.605 9.38636 123.558 9.38636 123.558 9.38636Z" fill="url(#paint6_linear_22_8)"/>
<path d="M144.816 20.3651V31.3437H146.835H148.854V20.3651V9.38636C148.854 9.38636 148.001 10.3082 146.835 10.3082C145.67 10.3082 144.816 9.38636 144.816 9.38636V20.3651Z" fill="url(#paint7_linear_22_8)"/>
<path d="M160.941 9.66472C157.744 10.1829 154.916 11.8855 153.367 14.2296C151.882 16.4768 151.744 19.2707 151.744 20.9658C151.744 22.661 152.006 23.9456 152.604 25.2346C153.613 27.406 155.014 28.8865 157.055 29.9475C159.391 31.1813 160.892 31.4281 164.629 31.3047C167.113 31.206 168.097 31.058 169.227 30.6384L170.63 30.0955V27.5294V24.9632L169.473 25.5554C164.801 27.9489 159.613 27.0359 157.793 23.4827C157.227 22.397 157.105 21.8541 157.105 20.3982C157.105 18.227 157.645 16.9685 159.047 15.7594C161.064 14.0322 164.629 13.6867 167.998 14.9205C169.031 15.2906 170.556 16.1402 170.63 16.2636C170.63 16.2636 170.63 15.7841 170.63 13.4893V10.8985L169.277 10.405C166.793 9.46733 163.695 9.19589 160.941 9.66472Z" fill="url(#paint8_linear_22_8)"/>
<path d="M172.926 20.3651V31.3437H174.946H176.966V28.5676V25.7914H181.255H185.546V28.5676V31.3437H187.565H189.584V20.3651V9.38636H187.565H185.546V15.5698V21.7532H181.255H176.966V15.5698V9.38636H174.946H172.926V20.3651Z" fill="url(#paint9_linear_22_8)"/>
<path d="M192.595 9.38636C192.495 9.46207 192.595 14.5855 192.595 20.5417V31.3437H199.788H206.982V29.3247V27.3056H201.933H196.886V26.5485V25.7914H201.175H205.466V23.7723V21.7532H201.175H196.886V17.5889V13.4245H201.933H206.982V11.4054V9.38636H199.965C196.104 9.38636 192.595 9.38636 192.595 9.38636Z" fill="url(#paint10_linear_22_8)"/>
<path d="M111.797 47.9375H86.6551V49.2784H111.797V47.9375Z" fill="white"/>
<path d="M146.835 9.56906C147.95 9.56906 148.854 8.66517 148.854 7.55016C148.854 6.43514 147.95 5.53125 146.835 5.53125C145.72 5.53125 144.816 6.43514 144.816 7.55016C144.816 8.66517 145.72 9.56906 146.835 9.56906Z" fill="#FF8C69"/>
<path d="M119.448 39.6239L115.221 44.2366L119.856 49.2784H117.474L113.119 44.3439L117.195 39.6239H119.448ZM110.995 49.2784V39.6239H112.711V49.2784H110.995ZM128.773 46.8755L129.309 48.2271C128.379 49.0711 127.171 49.493 125.683 49.493C124.124 49.493 122.873 49.0352 121.929 48.1199C120.985 47.2045 120.513 45.9816 120.513 44.4511C120.513 42.9922 120.956 41.7908 121.843 40.8468C122.73 39.8885 123.945 39.4093 125.49 39.4093C126.763 39.4093 127.829 39.8242 128.687 40.6537C129.545 41.469 129.974 42.5274 129.974 43.829C129.974 44.2723 129.938 44.6585 129.867 44.9875H122.444C122.515 45.8886 122.851 46.5966 123.452 47.1115C124.067 47.6264 124.854 47.8839 125.812 47.8839C127.071 47.8839 128.057 47.5478 128.773 46.8755ZM125.404 41.0184C124.546 41.0184 123.845 41.2616 123.302 41.7479C122.758 42.2199 122.436 42.8348 122.336 43.593H128.193C128.15 42.7919 127.879 42.1627 127.378 41.705C126.892 41.2472 126.234 41.0184 125.404 41.0184ZM134.019 49.2784H132.302V39.6239H134.019V46.8111L139.597 39.6239H141.313V49.2784H139.597V42.0911L134.019 49.2784ZM133.676 34.6893H135.285C135.37 35.8192 135.921 36.3842 136.937 36.3842C137.895 36.3842 138.417 35.8192 138.503 34.6893H140.112C140.112 35.5475 139.819 36.2627 139.232 36.8348C138.646 37.4068 137.881 37.693 136.937 37.693C135.907 37.693 135.106 37.414 134.534 36.8562C133.962 36.2984 133.676 35.5762 133.676 34.6893ZM143.21 41.3402V39.6239H152.007V41.3402H148.467V49.2784H146.75V41.3402H143.21ZM161.184 46.8755L161.721 48.2271C160.791 49.0711 159.583 49.493 158.095 49.493C156.536 49.493 155.285 49.0352 154.341 48.1199C153.397 47.2045 152.925 45.9816 152.925 44.4511C152.925 42.9922 153.368 41.7908 154.255 40.8468C155.142 39.8885 156.357 39.4093 157.902 39.4093C159.175 39.4093 160.24 39.8242 161.099 40.6537C161.957 41.469 162.386 42.5274 162.386 43.829C162.386 44.2723 162.35 44.6585 162.279 44.9875H154.855C154.927 45.8886 155.263 46.5966 155.864 47.1115C156.479 47.6264 157.266 47.8839 158.224 47.8839C159.482 47.8839 160.469 47.5478 161.184 46.8755ZM157.816 41.0184C156.958 41.0184 156.257 41.2616 155.714 41.7479C155.17 42.2199 154.848 42.8348 154.748 43.593H160.605C160.562 42.7919 160.291 42.1627 159.79 41.705C159.304 41.2472 158.646 41.0184 157.816 41.0184ZM164.714 53.5693V39.6239H166.431V40.761C166.774 40.3605 167.239 40.0387 167.826 39.7955C168.426 39.538 169.054 39.4093 169.713 39.4093C171.073 39.4093 172.152 39.8671 172.953 40.7824C173.768 41.6835 174.175 42.8563 174.175 44.301C174.175 45.7885 173.711 47.0257 172.78 48.0126C171.852 48.9995 170.643 49.493 169.155 49.493C168.012 49.493 167.103 49.2712 166.431 48.8279V53.5693H164.714ZM169.22 41.0184C168.076 41.0184 167.146 41.4618 166.431 42.3486V47.133C167.174 47.6336 168.032 47.8839 169.006 47.8839C170.02 47.8839 170.829 47.5548 171.43 46.897C172.045 46.2391 172.351 45.3951 172.351 44.3653C172.351 43.3642 172.073 42.5559 171.515 41.941C170.957 41.326 170.193 41.0184 169.22 41.0184ZM178.352 49.2784H176.636V39.6239H178.352V46.8111L183.93 39.6239H185.646V49.2784H183.93V42.0911L178.352 49.2784ZM195.847 49.2784V45.202H190.484V49.2784H188.767V39.6239H190.484V43.593H195.847V39.6239H197.563V49.2784H195.847ZM200.668 49.2784V39.6239H206.782V41.233H202.384V49.2784H200.668Z" fill="white"/>
</g>
<defs>
<linearGradient id="paint0_linear_22_8" x1="16.3817" y1="0.0345001" x2="16.3817" y2="58.6648" gradientUnits="userSpaceOnUse">
<stop stop-color="#FF8A66"/>
<stop offset="1" stop-color="#C03105"/>
</linearGradient>
<linearGradient id="paint1_linear_22_8" x1="22.4171" y1="12.0709" x2="22.4171" y2="46.5937" gradientUnits="userSpaceOnUse">
<stop stop-color="#FF8A66"/>
<stop offset="1" stop-color="#C03105"/>
</linearGradient>
<linearGradient id="paint2_linear_22_8" x1="57.819" y1="0" x2="57.819" y2="58.6648" gradientUnits="userSpaceOnUse">
<stop stop-color="#FF8A66"/>
<stop offset="1" stop-color="#C03105"/>
</linearGradient>
<linearGradient id="paint3_linear_22_8" x1="30.6943" y1="27.2458" x2="30.6943" y2="31.3844" gradientUnits="userSpaceOnUse">
<stop stop-color="#FF8A66"/>
<stop offset="1" stop-color="#C03105"/>
</linearGradient>
<linearGradient id="paint4_linear_22_8" x1="96.0979" y1="9.43962" x2="96.0979" y2="31.3332" gradientUnits="userSpaceOnUse">
<stop stop-color="#FF8A66"/>
<stop offset="1" stop-color="#C03105"/>
</linearGradient>
<linearGradient id="paint5_linear_22_8" x1="115.065" y1="9.38636" x2="115.065" y2="31.3437" gradientUnits="userSpaceOnUse">
<stop stop-color="#FF8A66"/>
<stop offset="1" stop-color="#C03105"/>
</linearGradient>
<linearGradient id="paint6_linear_22_8" x1="133.208" y1="9.38636" x2="133.208" y2="31.3437" gradientUnits="userSpaceOnUse">
<stop stop-color="#FF8A66"/>
<stop offset="1" stop-color="#C03105"/>
</linearGradient>
<linearGradient id="paint7_linear_22_8" x1="146.835" y1="9.38636" x2="146.835" y2="31.3437" gradientUnits="userSpaceOnUse">
<stop stop-color="#FF8A66"/>
<stop offset="1" stop-color="#C03105"/>
</linearGradient>
<linearGradient id="paint8_linear_22_8" x1="161.187" y1="9.43962" x2="161.187" y2="31.3332" gradientUnits="userSpaceOnUse">
<stop stop-color="#FF8A66"/>
<stop offset="1" stop-color="#C03105"/>
</linearGradient>
<linearGradient id="paint9_linear_22_8" x1="181.255" y1="9.38636" x2="181.255" y2="31.3437" gradientUnits="userSpaceOnUse">
<stop stop-color="#FF8A66"/>
<stop offset="1" stop-color="#C03105"/>
</linearGradient>
<linearGradient id="paint10_linear_22_8" x1="199.766" y1="9.38636" x2="199.766" y2="31.3437" gradientUnits="userSpaceOnUse">
<stop stop-color="#FF8A66"/>
<stop offset="1" stop-color="#C03105"/>
</linearGradient>
<clipPath id="clip0_22_8">
<rect width="207" height="59" fill="white"/>
</clipPath>
</defs>
</svg>
